<svg xmlns="http://www.w3.org/2000/svg" viewBox="0 0 128 128">
  <defs>
    <linearGradient id="metalGradient" x1="0%" y1="0%" x2="100%" y2="100%">
      <stop offset="0%" style="stop-color:#ffffff;stop-opacity:1" />
      <stop offset="100%" style="stop-color:#e0e0e0;stop-opacity:1" />
    </linearGradient>
    
    <linearGradient id="screenGradient" x1="0%" y1="0%" x2="0%" y2="100%">
      <stop offset="0%" style="stop-color:#4FC3F7;stop-opacity:1" />
      <stop offset="100%" style="stop-color:#2196F3;stop-opacity:1" />
    </linearGradient>
    
    <radialGradient id="glowGradient" cx="50%" cy="50%" r="50%">
      <stop offset="0%" style="stop-color:#ffffff;stop-opacity:0.6" />
      <stop offset="100%" style="stop-color:#ffffff;stop-opacity:0" />
    </radialGradient>
  </defs>

  <rect x="34" y="20" width="60" height="45" rx="8" 
        fill="url(#metalGradient)"/>
  
  <rect x="61" y="10" width="6" height="10" 
        fill="#d0d0d0"/>
  <circle cx="64" cy="8" r="4" 
          fill="#ff6b6b"/>
  
  <rect x="44" y="30" width="40" height="25" rx="4" 
        fill="url(#screenGradient)"/>
  
  <circle cx="54" cy="42" r="6" fill="#ffffff"/>
  <circle cx="74" cy="42" r="6" fill="#ffffff"/>
  <circle cx="54" cy="42" r="3" fill="#2c3e50"/>
  <circle cx="74" cy="42" r="3" fill="#2c3e50"/>
  
  <rect x="54" y="65" width="20" height="10" 
        fill="#d0d0d0"/>
  
  <rect x="29" y="75" width="70" height="45" rx="6" 
        fill="url(#metalGradient)"/>
  
  <circle cx="44" cy="90" r="5" fill="#4fc3f7">
    <animate attributeName="opacity" 
             values="1;0.5;1" 
             dur="2s" 
             repeatCount="indefinite"/>
  </circle>
  <circle cx="64" cy="90" r="5" fill="#4fc3f7">
    <animate attributeName="opacity" 
             values="0.5;1;0.5" 
             dur="2s" 
             repeatCount="indefinite"/>
  </circle>
  <circle cx="84" cy="90" r="5" fill="#4fc3f7">
    <animate attributeName="opacity" 
             values="1;0.5;1" 
             dur="2s" 
             repeatCount="indefinite"/>
  </circle>
  
  <rect x="39" y="100" width="50" height="15" rx="2" 
        fill="#2c3e50"/>
  <circle cx="49" cy="107.5" r="3" fill="#e74c3c"/>
  <circle cx="64" cy="107.5" r="3" fill="#f1c40f"/>
  <circle cx="79" cy="107.5" r="3" fill="#2ecc71"/>
  
  <rect x="19" y="80" width="10" height="30" rx="5" 
        fill="#d0d0d0"/>
  <rect x="99" y="80" width="10" height="30" rx="5" 
        fill="#d0d0d0"/>
  
  <rect x="44" y="30" width="40" height="25" rx="4" 
        fill="url(#glowGradient)"/>
  
  <path d="M34 20 h60 v20 q-30 5 -60 0 z" 
        fill="#ffffff" 
        opacity="0.2"/>
</svg>