<svg xmlns="http://www.w3.org/2000/svg" viewBox="0 0 128 128">
  <defs>
    <linearGradient id="skullGradient" x1="20%" y1="0%" x2="80%" y2="100%">
      <stop offset="0%" style="stop-color:#ffffff;stop-opacity:1" />
      <stop offset="70%" style="stop-color:#f0f0f0;stop-opacity:1" />
      <stop offset="100%" style="stop-color:#e0e0e0;stop-opacity:1" />
    </linearGradient>
    
    <radialGradient id="sphereGradient" cx="30%" cy="30%" r="70%">
      <stop offset="0%" style="stop-color:#ffffff;stop-opacity:1" />
      <stop offset="90%" style="stop-color:#e0e0e0;stop-opacity:1" />
      <stop offset="100%" style="stop-color:#d0d0d0;stop-opacity:1" />
    </radialGradient>
    
    <linearGradient id="topShade" x1="0%" y1="0%" x2="0%" y2="100%">
      <stop offset="0%" style="stop-color:#000000;stop-opacity:0.15" />
      <stop offset="100%" style="stop-color:#000000;stop-opacity:0" />
    </linearGradient>
    
    <radialGradient id="eyeGradient" cx="50%" cy="50%" r="50%">
      <stop offset="0%" style="stop-color:#323232;stop-opacity:1" />
      <stop offset="100%" style="stop-color:#000000;stop-opacity:1" />
    </radialGradient>
  </defs>
  <path d="M64 16
           C34 16 24 38 24 64
           C24 82 32 94 44 100
           L44 110
           C44 114 48 118 52 118
           L76 118
           C80 118 84 114 84 110
           L84 100
           C96 94 104 82 104 64
           C104 38 94 16 64 16Z" 
        fill="url(#sphereGradient)"/>

  <path d="M64 16
           C34 16 24 38 24 64
           C40 64 88 64 104 64
           C104 38 94 16 64 16Z"
        fill="url(#topShade)"
        opacity="0.4"/>

  <!-- Left eye socket with gradient -->
  <path d="M44 52
           C44 42 36 42 36 52
           C36 62 44 62 44 52Z" 
        fill="url(#eyeGradient)"/>
  
  <!-- Right eye socket with gradient -->
  <path d="M92 52
           C92 42 84 42 84 52
           C84 62 92 62 92 52Z" 
        fill="url(#eyeGradient)"/>
  

  <path d="M32 52 C32 42 48 42 48 52 C48 62 32 62 32 52Z" 
        fill="#000000" 
        opacity="0.2"/>
  <path d="M80 52 C80 42 96 42 96 52 C96 62 80 62 80 52Z" 
        fill="#000000" 
        opacity="0.2"/>

  <path d="M64 62
           L58 77
           L70 77
           Z" 
        fill="url(#eyeGradient)"/>
  
  <path d="M44 100
           Q64 106 84 100
           L84 110
           Q64 116 44 110
           Z" 
        fill="url(#skullGradient)"/>

  <path d="M54 100 L54 110 M64 100 L64 110 M74 100 L74 110"
        stroke="#d0d0d0"
        stroke-width="0.75"/>

  <path d="M28 64
           C28 40 36 20 64 20
           L64 64
           Z" 
        fill="#000000" 
        opacity="0.08"/>
  <path d="M100 64
           C100 40 92 20 64 20
           L64 64
           Z" 
        fill="#000000" 
        opacity="0.08"/>
        
  <path d="M64 20
           C92 20 100 40 100 64
           C100 82 92 94 84 100
           C92 94 98 82 98 64
           C98 40 90 22 64 20Z"
        fill="#ffffff"
        opacity="0.2"/>
</svg>