<?xml version="1.0" encoding="UTF-8"?>
<svg version="1.1" xmlns="http://www.w3.org/2000/svg" width="500" height="500">
    <path d="M0 0 C165 0 330 0 500 0 C500 165 500 330 500 500 C335 500 170 500 0 500 C0 335 0 170 0 0 Z " fill="#FEFEFE" transform="translate(0,0)"/>
    <path d="M0 0 C1.76859866 -0.00407112 3.53719478 -0.00941602 5.30578613 -0.01593018 C10.08717152 -0.02955134 14.86836164 -0.02432507 19.64975023 -0.01479292 C24.67376233 -0.00716215 29.69775844 -0.01425205 34.72177124 -0.01895142 C43.16317725 -0.02440206 51.60450441 -0.01723865 60.04589844 -0.00292969 C69.76951464 0.01336371 79.49294178 0.00812961 89.21655333 -0.0084089 C97.59402209 -0.02208152 105.97143436 -0.0239144 114.34891069 -0.0160929 C119.33928351 -0.01144389 124.3295679 -0.01071377 129.31993484 -0.02070236 C134.01996824 -0.02945307 138.71976148 -0.02320429 143.41976929 -0.00601959 C145.13203917 -0.0020962 146.84432973 -0.00311633 148.55659103 -0.00980759 C172.30173068 -0.09394836 190.51064239 4.82484036 207.99755859 21.91552734 C225.4153456 40.16400881 235.44685652 64.21254929 241.66162109 88.32568359 C241.90799316 89.26541016 242.15436523 90.20513672 242.40820312 91.17333984 C246.16102895 106.40249894 246.76197293 121.6112484 246.72729492 137.2253418 C246.7241358 140.18689894 246.74769648 143.147452 246.77294922 146.10888672 C246.8989107 184.02329186 236.42088775 222.51199088 212.41162109 252.38818359 C211.74775391 253.24669922 211.08388672 254.10521484 210.39990234 254.98974609 C208.50988598 257.26964796 206.57947374 259.19575701 204.34912109 261.13818359 C203.67751953 261.73115234 203.00591797 262.32412109 202.31396484 262.93505859 C200.41162109 264.38818359 200.41162109 264.38818359 197.41162109 265.38818359 C197.41606232 266.18030243 197.42050354 266.97242126 197.42507935 267.7885437 C197.46532262 275.29065501 197.49568958 282.79271323 197.51524544 290.29490471 C197.52563759 294.1509147 197.53971223 298.00683473 197.5625 301.86279297 C197.58439274 305.59106442 197.59622398 309.3192499 197.60137558 313.04758072 C197.60504208 314.46278357 197.61220095 315.87798226 197.62308121 317.29314804 C197.7240799 330.98703862 196.67486613 344.25836078 187.05224609 354.94677734 C176.54308087 364.17982965 165.86044578 366.3164731 152.35839844 365.58349609 C144.21710928 364.76671263 137.03537564 359.01193814 131.41162109 353.38818359 C127.35184646 353.67625341 125.27571087 355.04687195 122.28662109 357.70068359 C113.0584249 365.05298417 102.98654814 366.75570698 91.44482422 365.71484375 C84.75294931 364.63970823 78.98010316 360.92502132 73.97412109 356.51318359 C71.65085826 354.20802017 71.65085826 354.20802017 69.01708984 354.05224609 C65.78694695 354.46872629 64.58720298 355.50007808 62.16162109 357.63818359 C52.50872868 365.38879591 43.87746903 366.67998669 31.65576172 365.70166016 C22.10774565 364.36792945 14.44073454 357.51533115 7.41162109 351.38818359 C7.15509766 351.98630859 6.89857422 352.58443359 6.63427734 353.20068359 C4.49654951 357.02537238 1.01796116 359.03019201 -2.58837891 361.38818359 C-3.50876953 362.01853516 -3.50876953 362.01853516 -4.44775391 362.66162109 C-12.08788664 366.97065595 -22.12014086 366.59714685 -30.58837891 365.38818359 C-35.08767143 363.98305694 -38.72496112 362.06665535 -42.58837891 359.38818359 C-43.27158203 358.93185547 -43.95478516 358.47552734 -44.65869141 358.00537109 C-53.20118855 351.53378235 -56.92082468 341.64807348 -58.58837891 331.38818359 C-58.98309592 326.21881517 -58.88841847 321.03573203 -58.81567764 315.85572815 C-58.78292735 313.29724484 -58.77471785 310.7397135 -58.77340698 308.18103027 C-58.76784804 300.91581616 -58.73880391 293.65139417 -58.64697266 286.38671875 C-58.59222571 281.91795395 -58.58195515 277.4508679 -58.59911728 272.98182678 C-58.59719079 271.29466274 -58.57900652 269.60742648 -58.54330826 267.92063904 C-58.28980216 255.59835542 -60.29504772 249.58366114 -68.58837891 240.38818359 C-70.48485747 237.43250148 -72.1231396 234.39262934 -73.71337891 231.26318359 C-74.33539185 230.05359985 -74.33539185 230.05359985 -74.9699707 228.81958008 C-88.5880321 201.801957 -94.18111705 172.81426011 -93.97949219 142.67651367 C-93.96336237 139.82275799 -93.97948597 136.97041357 -93.99853516 134.11669922 C-94.01300531 121.63190334 -92.87024577 109.65944737 -90.58837891 97.38818359 C-90.38970215 96.31850342 -90.19102539 95.24882324 -89.98632812 94.14672852 C-89.4871867 91.66980144 -88.93756278 89.21763747 -88.33837891 86.76318359 C-88.12930908 85.90184814 -87.92023926 85.0405127 -87.70483398 84.15307617 C-80.68713755 56.50614406 -65.84479529 26.69444956 -41.58837891 10.38818359 C-27.66203416 2.40737844 -15.86026343 -0.06149883 0 0 Z " fill="#A5A5A5" transform="translate(173.58837890625,49.61181640625)"/>
    <path d="M0 0 C7.58331331 6.23710571 13.08564148 13.00075132 17 22 C17.41121094 22.91136719 17.82242188 23.82273438 18.24609375 24.76171875 C23.79018878 38.82338539 21.82660478 53.42917367 16 67 C14.00154121 70.68946238 11.73581984 73.82578306 9 77 C8.35417969 77.77859375 7.70835937 78.5571875 7.04296875 79.359375 C-2.28065308 89.66898282 -15.68381951 95.04258186 -29.3671875 96.3125 C-44.15276842 96.83938039 -56.6476954 92.33519015 -67.7265625 82.60546875 C-78.66063405 72.10682483 -84.96785247 59.63469406 -85.49414062 44.31835938 C-85.51322719 37.17362154 -84.83131349 30.61404002 -82 24 C-81.67128906 23.18402344 -81.34257813 22.36804688 -81.00390625 21.52734375 C-77.89367325 14.56429616 -73.354985 9.36429802 -68 4 C-67.43410156 3.4225 -66.86820313 2.845 -66.28515625 2.25 C-47.74459315 -15.15727685 -20.02580766 -13.33431665 0 0 Z " fill="#312F2F" transform="translate(207,119)"/>
    <path d="M0 0 C10.36617121 8.47558666 17.51974617 18.94357017 20.52734375 32.06640625 C22.17887241 48.81762551 20.34623025 63.05444412 9.68359375 76.6015625 C0.36381628 87.25514871 -12.4284776 95.25452381 -26.8203125 96.3125 C-43.88626354 96.62819224 -58.03765681 92.1534152 -70.47827148 80.32202148 C-80.94879508 69.79794023 -84.82965458 57.1016717 -84.97265625 42.50390625 C-84.8139009 27.64781714 -79.97186915 15.93170864 -69.91015625 4.87890625 C-50.5846602 -13.28780764 -21.65639186 -15.0780593 0 0 Z " fill="#312F2F" transform="translate(357.47265625,118.93359375)"/>
    <path d="M0 0 C8.32971049 4.16485525 15.6323365 9.03764564 19.4375 17.875 C20.34287486 22.33458295 20.73666938 26.62213326 18.39453125 30.68359375 C15.71275023 33.3353268 12.82659468 34.234986 9.1875 34.5 C2.9935666 34.16348749 -3.18857792 31.24892208 -7.5625 26.875 C-10.85639982 27.26045636 -13.34444253 28.81223425 -16.1875 30.4375 C-21.36250888 33.05940258 -25.82137256 34.0943545 -31.5625 32.875 C-34.6875 31 -34.6875 31 -36.5625 27.875 C-37.62919222 22.69265363 -37.18518427 18.27283128 -34.5 13.6875 C-25.93984816 1.82762483 -14.54058579 -6.16873336 0 0 Z " fill="#323030" transform="translate(258.5625,234.125)"/>
    <path d="M0 0 C4.70588235 0.70588235 4.70588235 0.70588235 6 2 C6.1004117 3.64466789 6.13081681 5.29367721 6.1328125 6.94140625 C6.13571289 8.51100098 6.13571289 8.51100098 6.13867188 10.11230469 C6.13416016 11.25086914 6.12964844 12.38943359 6.125 13.5625 C6.12306641 14.73329102 6.12113281 15.90408203 6.11914062 17.11035156 C6.08171524 24.83453577 5.86404717 32.53487778 5.5 40.25 C4.25474816 61.84347217 4.25474816 61.84347217 6.546875 83.24609375 C7.39847723 88.42177972 7.52964868 93.78140276 7 99 C6.01 99.99 6.01 99.99 5 101 C1.46428571 100.46428571 1.46428571 100.46428571 0 99 C-0.21668337 97.14709389 -0.37153919 95.28688591 -0.5 93.42578125 C-0.5825 92.28302734 -0.665 91.14027344 -0.75 89.96289062 C-0.8325 88.75826172 -0.915 87.55363281 -1 86.3125 C-1.16414138 83.95424996 -1.33072934 81.59616867 -1.5 79.23828125 C-1.60828125 77.661073 -1.60828125 77.661073 -1.71875 76.05200195 C-1.95301938 73.02768296 -1.95301938 73.02768296 -2.50849915 70.18338013 C-2.98904027 67.07098458 -3.13343191 64.16039792 -3.14526367 61.01391602 C-3.15483345 59.27665001 -3.15483345 59.27665001 -3.16459656 57.50428772 C-3.16570938 56.26666183 -3.1668222 55.02903595 -3.16796875 53.75390625 C-3.17129715 52.469431 -3.17462555 51.18495575 -3.17805481 49.86155701 C-3.1840233 47.1491512 -3.185897 44.43677714 -3.18530273 41.72436523 C-3.18520111 38.2634859 -3.19886423 34.80281168 -3.21607494 31.34198093 C-3.2299207 28.0209532 -3.22928488 24.69996244 -3.23046875 21.37890625 C-3.23765427 20.1433046 -3.24483978 18.90770294 -3.25224304 17.63465881 C-3.2140395 3.2140395 -3.2140395 3.2140395 0 0 Z " fill="#383636" transform="translate(300,301)"/>
    <path d="M0 0 C2.5625 0.25 2.5625 0.25 5 1 C6.46914583 3.93829167 6.13876695 6.90044518 6.12939453 10.12084961 C6.13114685 10.85449738 6.13289917 11.58814514 6.13470459 12.34402466 C6.13912026 14.78015482 6.1361834 17.21621279 6.1328125 19.65234375 C6.13348627 21.34949253 6.13445691 23.04664122 6.13571167 24.74378967 C6.13718878 28.3107291 6.13503605 31.87764355 6.13037109 35.44458008 C6.12471275 39.99024703 6.12792778 44.53585443 6.13394356 49.08151913 C6.13758224 52.59308814 6.13639482 56.10464339 6.13381577 59.61621284 C6.13315358 61.29014658 6.13394987 62.96408161 6.13629532 64.63801384 C6.1633134 89.37275614 6.1633134 89.37275614 3 95 C1.35 94.67 -0.3 94.34 -2 94 C-2.04626639 82.03924764 -2.08184014 70.07851644 -2.10362434 58.11769295 C-2.11407774 52.56426974 -2.12826523 47.01090759 -2.15087891 41.45751953 C-2.17255192 36.10183992 -2.1845569 30.74621918 -2.18975449 25.39049911 C-2.19346023 23.34348498 -2.20069624 21.2964742 -2.21146011 19.24948502 C-2.22590142 16.39037267 -2.22798104 13.53150601 -2.22705078 10.67236328 C-2.23783661 9.39274719 -2.23783661 9.39274719 -2.24884033 8.08728027 C-2.22810432 2.22810432 -2.22810432 2.22810432 0 0 Z " fill="#363434" transform="translate(183,306)"/>
    <path d="M0 0 C3.53571429 0.53571429 3.53571429 0.53571429 5 2 C5.11731728 3.51810545 5.16725412 5.04149491 5.18945312 6.56396484 C5.20617065 7.53522308 5.22288818 8.50648132 5.2401123 9.50717163 C5.25368774 10.56441437 5.26726318 11.6216571 5.28125 12.7109375 C5.29965942 13.79001373 5.31806885 14.86908997 5.33703613 15.98086548 C5.39599725 19.44551965 5.44870905 22.91022428 5.5 26.375 C5.56755561 30.92458603 5.64127255 35.47401088 5.71875 40.0234375 C5.73232544 41.07663177 5.74590088 42.12982605 5.7598877 43.2149353 C5.77660522 44.19249786 5.79332275 45.17006042 5.81054688 46.17724609 C5.82307495 47.03804779 5.83560303 47.89884949 5.84851074 48.78573608 C5.91899912 51.17489287 5.91899912 51.17489287 7 54 C7.08669529 55.51907624 7.117694 57.04169001 7.11352539 58.56323242 C7.11344986 59.48396042 7.11337433 60.40468842 7.11329651 61.35331726 C7.10813522 62.34402725 7.10297394 63.33473724 7.09765625 64.35546875 C7.0962413 65.37224197 7.09482635 66.3890152 7.09336853 67.43659973 C7.08776707 70.68692964 7.07521432 73.93719088 7.0625 77.1875 C7.05748519 79.38997296 7.05292225 81.59244701 7.04882812 83.79492188 C7.03779717 89.19663804 7.02105762 94.59831412 7 100 C4.625 100.625 4.625 100.625 2 101 C-0.46840766 98.53159234 -0.26135587 97.80157357 -0.30297852 94.40185547 C-0.31962051 93.44681122 -0.33626251 92.49176697 -0.35340881 91.50778198 C-0.36182297 90.4713858 -0.37023712 89.43498962 -0.37890625 88.3671875 C-0.39590073 87.30138458 -0.4128952 86.23558167 -0.43040466 85.13748169 C-0.48367005 81.71671543 -0.52384373 78.2959601 -0.5625 74.875 C-0.60657077 71.47552989 -0.65349343 68.07614942 -0.70530701 64.67678833 C-0.73699051 62.5598928 -0.76396263 60.4429199 -0.78553772 58.32589722 C-0.84353497 54.13853495 -0.92995668 50.02835691 -1.50488281 45.87695312 C-2.07627227 41.40275957 -2.16191044 37.04342947 -2.16796875 32.5390625 C-2.17129715 31.66728363 -2.17462555 30.79550476 -2.17805481 29.89730835 C-2.18308415 28.07037886 -2.18546438 26.24344031 -2.18530273 24.41650391 C-2.18751011 21.61215493 -2.20576406 18.80818689 -2.22460938 16.00390625 C-2.22753991 14.22395967 -2.22952698 12.44401124 -2.23046875 10.6640625 C-2.23765427 9.82453033 -2.24483978 8.98499817 -2.25224304 8.12002563 C-2.22885169 2.22885169 -2.22885169 2.22885169 0 0 Z " fill="#343232" transform="translate(239,302)"/>
</svg>
