<?xml version="1.0" encoding="UTF-8"?>
<svg version="1.1" xmlns="http://www.w3.org/2000/svg" width="500" height="500">
<path d="M0 0 C165 0 330 0 500 0 C500 165 500 330 500 500 C335 500 170 500 0 500 C0 335 0 170 0 0 Z " fill="#EACB4B" transform="translate(0,0)"/>
<path d="M0 0 C165 0 330 0 500 0 C500 165 500 330 500 500 C335 500 170 500 0 500 C0 335 0 170 0 0 Z M154 66 C153.38640625 66.32613281 152.7728125 66.65226562 152.140625 66.98828125 C143.52084225 71.61128439 135.65808873 76.9133385 128 83 C127.10925781 83.69738281 126.21851562 84.39476562 125.30078125 85.11328125 C113.71958844 94.36132864 102.98655004 104.17648615 94 116 C93.28714844 116.8971875 92.57429688 117.794375 91.83984375 118.71875 C59.2028085 160.62309155 44.75841815 213.56522351 51.0222168 266.22607422 C51.32371393 268.48839953 51.65482477 270.74394638 52 273 C52.1129541 273.76731445 52.2259082 274.53462891 52.34228516 275.32519531 C59.94471475 324.72572173 89.013552 372.00596271 129.18798828 401.68408203 C160.95649018 424.75498277 198.81201483 440.91615928 238.51953125 441.23828125 C239.49879074 441.246353 240.47805023 441.25442474 241.48698425 441.26274109 C243.55177086 441.27648727 245.61657929 441.28725113 247.68139648 441.29516602 C249.74917483 441.30661337 251.81692535 441.32694814 253.88452148 441.35668945 C274.4031458 441.65058669 293.05523673 438.59887273 312.4375 431.9375 C313.13690704 431.70078583 313.83631409 431.46407166 314.55691528 431.22018433 C338.75138377 422.99045908 360.737882 410.89281595 380 394 C381.27230469 392.89205078 381.27230469 392.89205078 382.5703125 391.76171875 C421.37638637 357.40588271 446.91435834 308.07008706 450.12298584 256.0043335 C452.71343416 201.39352002 435.94369961 148.88969849 399 108 C398.20851563 107.08863281 397.41703125 106.17726563 396.6015625 105.23828125 C392.04847099 100.04029794 387.34454742 95.37281152 382 91 C381.47664063 90.56429687 380.95328125 90.12859375 380.4140625 89.6796875 C371.66577472 82.40888832 362.71961884 75.90486832 353 70 C352.01644531 69.38511719 351.03289062 68.77023438 350.01953125 68.13671875 C290.73245254 32.05241039 214.14488255 33.81503186 154 66 Z " fill="#FEFEFE" transform="translate(0,0)"/>
<path d="M0 0 C5.01665371 0.54550021 8.60476692 2.91944248 12.8125 5.5 C14.33656822 6.41388098 15.86132417 7.32661588 17.38671875 8.23828125 C18.54179932 8.93171631 18.54179932 8.93171631 19.72021484 9.63916016 C57.91019819 32.43536568 96.24147709 34.07352273 139.875 34.25 C141.18670166 34.25926514 142.49840332 34.26853027 143.84985352 34.27807617 C165.32644757 34.20589783 182.48225224 23.97952976 197.56054688 9.39208984 C199.51429973 7.50262261 201.49144069 5.6436114 203.5 3.8125 C204.0671875 3.28269531 204.634375 2.75289063 205.21875 2.20703125 C207.48156827 0.67367413 209.28588981 0.22470717 212 0 C212.99 0.99 212.99 0.99 214 2 C213.60879107 6.66588212 210.47562793 8.65959643 207.109375 11.52734375 C188.62126825 26.22956934 170.44931377 39.42415748 146 40 C145.22350098 40.02578125 144.44700195 40.0515625 143.64697266 40.078125 C127.74753826 40.55657328 111.9255097 39.6630252 96.0625 38.6875 C95.06438293 38.62864624 94.06626587 38.56979248 93.03790283 38.50915527 C58.12383415 36.41756537 25.46210682 28.57195634 -1 4 C-0.67 2.68 -0.34 1.36 0 0 Z " fill="#282720" transform="translate(139,310)"/>
<path d="M0 0 C5.23728443 2.7422691 8.57994391 6.91828606 10.8828125 12.265625 C11.90701302 18.60488719 11.04657908 23.35283698 7.3125 28.57421875 C3.52906136 33.05025408 0.288531 34.86018232 -5.4140625 35.5390625 C-12.00068019 35.81175686 -16.09813826 34.57923183 -21.1171875 30.265625 C-25.19503618 26.28972254 -25.43266205 22.74949069 -25.6171875 17.265625 C-25.43266205 11.78175931 -25.19503618 8.24152746 -21.1171875 4.265625 C-14.97688366 -1.1233946 -7.85977543 -2.72626897 0 0 Z " fill="#33302F" transform="translate(184.1171875,182.734375)"/>
<path d="M0 0 C4.00521387 2.88747977 7.46370991 6.48991981 9.6875 10.9375 C10.21486173 17.14414192 10.44997482 22.71858332 6.6875 27.9375 C1.87829603 32.75807325 -1.66806859 35.06717608 -8.625 35.25 C-13.70755647 35.18973253 -16.44623329 34.43555083 -20.3125 30.9375 C-25.59466571 25.42504914 -26.67872644 21.15592936 -26.58984375 13.66015625 C-26.05022629 8.36278487 -23.0278411 5.44764806 -19.1875 2.125 C-13.43315849 -2.25330332 -6.82195302 -2.18817361 0 0 Z " fill="#32302F" transform="translate(329.3125,183.0625)"/>
</svg>
