<?xml version="1.0" encoding="UTF-8"?>
<svg version="1.1" xmlns="http://www.w3.org/2000/svg" width="500" height="500">
<path d="M0 0 C165 0 330 0 500 0 C500 165 500 330 500 500 C335 500 170 500 0 500 C0 335 0 170 0 0 Z " fill="#FEFEFE" transform="translate(0,0)"/>
<path d="M0 0 C2.98885268 2.77737346 5.01050908 5.43928991 6.9609375 9.015625 C7.50766113 10.00723633 8.05438477 10.99884766 8.61767578 12.02050781 C9.19759277 13.08624023 9.77750977 14.15197266 10.375 15.25 C11.62837519 17.52184564 12.88363258 19.79265374 14.140625 22.0625 C14.46044342 22.64098694 14.78026184 23.21947388 15.10977173 23.81549072 C18.35940763 29.67945079 21.73389953 35.46713174 25.125 41.25 C25.69669922 42.23500488 26.26839844 43.22000977 26.85742188 44.23486328 C29.68361765 49.09729943 32.55784861 53.91541063 35.546875 58.6796875 C41.67773393 68.61660476 46.18501464 75.96218785 44 88 C27.8036669 80.37819619 22.09972661 66.94543598 16.35571289 51.01367188 C13.45012008 42.99496196 10.09582918 35.48048544 6 28 C5.01 28 4.02 28 3 28 C3.48553721 33.48164476 5.02748389 37.48869373 7.6875 42.3125 C10.79927594 48.19493998 13.15341136 54.02217712 15.125 60.375 C19.30316914 73.59379061 26.10528136 85.42353909 38.67700195 92.15136719 C40.17007622 92.95389923 40.17007622 92.95389923 41.6933136 93.77264404 C42.83512337 94.38018524 42.83512337 94.38018524 44 95 C44.37674243 103.77250296 44.65790822 112.54208186 44.82899475 121.32101059 C44.91126826 125.40139057 45.02201558 129.47610642 45.20703125 133.55322266 C46.23015153 156.72107143 43.47072409 171.81283064 30.01841736 191.0271759 C26.81006718 195.75259143 24.10993336 200.74126856 21.375 205.75 C14.72492666 217.5820817 7.87015996 229.29476481 1 241 C-1.8394198 237.60812787 -4.12917043 234.22250019 -6.25 230.34375 C-6.85215332 229.2496582 -7.45430664 228.15556641 -8.07470703 227.02832031 C-8.38845276 226.45327759 -8.70219849 225.87823486 -9.02545166 225.2857666 C-10.69200746 222.23196254 -12.37446475 219.18692377 -14.0546875 216.140625 C-14.39152557 215.5289447 -14.72836365 214.9172644 -15.07540894 214.28704834 C-18.50998807 208.05700758 -21.99956495 201.85758201 -25.61083984 195.72802734 C-28.21927929 191.2729811 -30.58204054 186.8188693 -32.71875 182.1171875 C-40.30128838 166.06811239 -49.7240187 159.53825371 -65.42822266 151.80224609 C-70.91287022 149.07559273 -76.18481582 145.97081022 -81.48080444 142.89865112 C-83.23520156 141.88356233 -84.99414551 140.87690804 -86.75512695 139.87329102 C-97.57548901 133.70384655 -108.30268 127.37992674 -119 121 C-117.70370192 117.11110575 -116.3996439 116.833288 -112.83984375 114.91796875 C-111.74816895 114.32282471 -110.65649414 113.72768066 -109.53173828 113.11450195 C-108.94652405 112.80082672 -108.36130981 112.48715149 -107.75836182 112.16397095 C-104.65771203 110.50118994 -101.57411593 108.80725478 -98.48828125 107.1171875 C-97.85790955 106.77297256 -97.22753784 106.42875763 -96.57806396 106.07411194 C-89.53207065 102.21728682 -82.60871829 98.15666189 -75.6862793 94.08325195 C-70.80494395 91.21402014 -65.91204042 88.37296151 -60.9765625 85.59765625 C-60.01282715 85.05455811 -59.0490918 84.51145996 -58.05615234 83.9519043 C-56.23926227 82.93091134 -54.41944613 81.91510085 -52.59619141 80.90551758 C-51.38068604 80.22138794 -51.38068604 80.22138794 -50.140625 79.5234375 C-49.43454102 79.13075684 -48.72845703 78.73807617 -48.00097656 78.33349609 C-43.85848433 75.57284546 -41.40165754 72.31646507 -39.0390625 67.984375 C-38.2190979 66.49719971 -38.2190979 66.49719971 -37.38256836 64.97998047 C-36.8025708 63.91408691 -36.22257324 62.84819336 -35.625 61.75 C-34.37033722 59.4755423 -33.11377792 57.20212992 -31.85546875 54.9296875 C-31.53544388 54.35078766 -31.21541901 53.77188782 -30.88569641 53.17544556 C-27.66019139 47.35511887 -24.30935165 41.61136678 -20.9375 35.875 C-15.52283695 26.65407304 -10.22155054 17.37487288 -4.99780273 8.04443359 C-4.23125366 6.67859131 -4.23125366 6.67859131 -3.44921875 5.28515625 C-2.99893311 4.47957275 -2.54864746 3.67398926 -2.0847168 2.84399414 C-1 1 -1 1 0 0 Z " fill="#EBCC4C" transform="translate(301,69)"/>
<path d="M0 0 C0.66 0 1.32 0 2 0 C2.36125977 0.64735107 2.72251953 1.29470215 3.09472656 1.96166992 C3.85994629 3.33222534 3.85994629 3.33222534 4.640625 4.73046875 C5.21014893 5.75132568 5.77967285 6.77218262 6.36645508 7.82397461 C7.63384602 10.08720793 8.90723677 12.34709074 10.1862793 14.60375977 C13.2455408 20.00998732 16.24505793 25.41605728 19.00390625 30.984375 C24.96710621 42.77195129 30.31343106 48.95800744 42.21191406 54.61230469 C47.58673566 57.28747859 52.75810963 60.34554344 57.9597168 63.3399353 C59.84863086 64.422389 61.7443936 65.49176322 63.64257812 66.55786133 C64.82167092 67.22467252 66.00070978 67.89157911 67.1796875 68.55859375 C68.22882324 69.14954834 69.27795898 69.74050293 70.35888672 70.34936523 C72.60340306 71.75213608 74.25908358 73.03127565 76 75 C63.95925761 82.10965089 51.88765238 89.1534323 39.625 95.875 C38.6870459 96.39223633 37.7490918 96.90947266 36.78271484 97.44238281 C35.91855957 97.91256836 35.0544043 98.38275391 34.1640625 98.8671875 C33.40561035 99.28081543 32.6471582 99.69444336 31.86572266 100.12060547 C30 101 30 101 28 101 C27.72994141 101.88268555 27.45988281 102.76537109 27.18164062 103.67480469 C26.07131099 106.79932733 24.78700429 109.36293055 23.09375 112.203125 C22.51898926 113.17572266 21.94422852 114.14832031 21.35205078 115.15039062 C20.43528564 116.68469727 20.43528564 116.68469727 19.5 118.25 C18.23546489 120.38973082 16.97245868 122.53036588 15.7109375 124.671875 C15.08541992 125.73341797 14.45990234 126.79496094 13.81542969 127.88867188 C9.75079105 134.85474972 5.87557311 141.92752556 2 149 C1.34 149 0.68 149 0 149 C-0.43231934 148.24082275 -0.86463867 147.48164551 -1.31005859 146.69946289 C-2.96797112 143.78941909 -4.62696776 140.87999836 -6.28662109 137.97094727 C-6.99471544 136.72932019 -7.70241869 135.48746996 -8.40966797 134.24536133 C-9.09593262 133.04022561 -9.78350815 131.83583549 -10.47235107 130.63217163 C-11.18455151 129.38066164 -11.88946696 128.12498286 -12.58770752 126.8656311 C-14.46435166 123.5155588 -16.42205366 120.36509436 -18.71777344 117.28466797 C-27.33969869 105.25316058 -27.66972485 93.37854844 -27.5234375 78.88330078 C-27.50017444 75.02890284 -27.60450052 71.19231645 -27.71875 67.33984375 C-27.90791823 49.54554714 -23.67272149 37.52924375 -13.83392334 22.79518127 C-10.77163097 18.12777665 -8.03426798 13.27376195 -5.25 8.4375 C-1.19094377 1.54912037 -1.19094377 1.54912037 0 0 Z " fill="#EBCC4D" transform="translate(255,282)"/>
<path d="M0 0 C0.66 0 1.32 0 2 0 C2.36125977 0.64735107 2.72251953 1.29470215 3.09472656 1.96166992 C4.18604682 3.91629137 5.27807395 5.87051822 6.37060547 7.82446289 C7.63201608 10.08166361 8.8914308 12.33998077 10.14892578 14.59936523 C13.2331744 20.12605576 16.3480742 25.62498906 19.6015625 31.0546875 C20.15424805 31.98643799 20.70693359 32.91818848 21.27636719 33.87817383 C22.31739191 35.62619869 23.37211129 37.36616325 24.44238281 39.09643555 C27.57331317 44.38672071 28.57788393 47.84765032 28 54 C20.06982303 46.81327712 14.56428009 37.47653932 9 28.4375 C8.50677246 27.63932861 8.01354492 26.84115723 7.50537109 26.01879883 C7.04984863 25.26880615 6.59432617 24.51881348 6.125 23.74609375 C5.71507812 23.07247803 5.30515625 22.3988623 4.8828125 21.70483398 C4 20 4 20 4 18 C2.35 18.33 0.7 18.66 -1 19 C0.59131877 30.43627758 10.04122555 41.17573762 16.875 50.11328125 C17.36154053 50.75458984 17.84808105 51.39589844 18.34936523 52.05664062 C19.97854763 54.0756736 19.97854763 54.0756736 22.10571289 55.81835938 C27.38777504 60.62292358 28.8153088 64.76529174 29.30859375 71.6796875 C29.45914144 75.08185718 29.47095828 78.47007942 29.4375 81.875 C29.43830063 83.20608292 29.43830063 83.20608292 29.43911743 84.5640564 C29.32511241 101.76526502 24.91028386 112.95338931 14.99316406 127.09472656 C11.88569846 131.62422689 9.24849772 136.40087368 6.5625 141.1875 C5.67145053 142.72467979 4.77732664 144.2600853 3.87890625 145.79296875 C3.25886719 146.85128906 2.63882813 147.90960938 2 149 C-1.95137256 147.68287581 -2.26879158 146.21535213 -4.22265625 142.59375 C-4.84462891 141.45550781 -5.46660156 140.31726563 -6.10742188 139.14453125 C-6.75962931 137.92996376 -7.4113221 136.71511977 -8.0625 135.5 C-9.32178883 133.17576514 -10.58354946 130.85286799 -11.84765625 128.53125 C-12.16807892 127.92236435 -12.48850159 127.3134787 -12.81863403 126.68614197 C-14.58028672 123.3848435 -16.44031135 120.32802795 -18.67333984 117.32250977 C-27.32640879 105.24384482 -27.67010393 93.3840958 -27.5234375 78.82836914 C-27.50015373 74.96302062 -27.60454776 71.11538536 -27.71875 67.25195312 C-27.90564833 49.65069402 -23.87408161 38.10698996 -13.84396362 23.73733521 C-10.64870485 18.99402345 -7.91115583 13.99055432 -5.125 9 C-4.12908431 7.24915723 -3.13195025 5.49900606 -2.1328125 3.75 C-1.42170756 2.50009525 -0.71069896 1.25013564 0 0 Z " fill="#EBCC4C" transform="translate(152,190)"/>
<path d="M0 0 C6.21044898 1.62828578 11.35475578 4.98531591 16.8125 8.25 C25.38092783 13.31420686 33.99128153 18.28337291 42.6875 23.125 C53.83750784 29.33754757 64.93198949 35.6426449 76 42 C76 42.66 76 43.32 76 44 C75.27111572 44.40202637 74.54223145 44.80405273 73.79125977 45.21826172 C57.07618536 54.40089406 57.07618536 54.40089406 40.5625 63.9375 C33.44407468 68.16642236 26.28876066 72.32975302 19.11032104 76.45584106 C17.83708579 77.1886379 16.56487254 77.92321356 15.29373169 78.65963745 C13.5044858 79.69578975 11.71171833 80.72557527 9.91796875 81.75390625 C8.87406982 82.35533447 7.8301709 82.9567627 6.75463867 83.57641602 C4 85 4 85 0 86 C0 63.89 0 41.78 0 19 C18.45849057 25.92193396 18.45849057 25.92193396 26 30.0625 C26.76699219 30.47048828 27.53398437 30.87847656 28.32421875 31.29882812 C32.77770147 33.69191349 37.06095271 36.25291125 41.2734375 39.04931641 C43.57850703 40.3185388 45.42361839 40.40255963 48 40 C48 38.02 48 36.04 48 34 C47.31292969 33.74089844 46.62585938 33.48179687 45.91796875 33.21484375 C43.26440009 32.11007822 40.73762791 30.86416932 38.18969727 29.53735352 C28.85794477 24.69125029 19.23126888 20.621652 9.52270508 16.59399414 C8.43368896 16.14145264 7.34467285 15.68891113 6.22265625 15.22265625 C5.24047119 14.81797119 4.25828613 14.41328613 3.24633789 13.99633789 C1 13 1 13 0 12 C-0.07244053 9.98035801 -0.08377188 7.95832876 -0.0625 5.9375 C-0.05347656 4.83277344 -0.04445313 3.72804687 -0.03515625 2.58984375 C-0.02355469 1.73519531 -0.01195312 0.88054687 0 0 Z " fill="#EBCC4C" transform="translate(346,146)"/>
<path d="M0 0 C2.01171875 0.11328125 2.01171875 0.11328125 4 1 C5.01953125 2.85546875 5.01953125 2.85546875 5.8125 5.1875 C7.17591077 8.56960424 8.25193211 10.52302598 11.1875 12.6875 C14.97210097 15.58738906 17.28127332 19.08631999 19.8125 23.0625 C20.19752686 23.66473389 20.58255371 24.26696777 20.97924805 24.88745117 C22.59994394 27.49269201 24.0060509 30.01528319 25.13671875 32.87109375 C25.79758813 35.17413425 25.79758813 35.17413425 28 36 C28 33.69 28 31.38 28 29 C31.5715301 30.34241922 34.78515569 31.93434981 38.0703125 33.87109375 C39.52630859 34.72550049 39.52630859 34.72550049 41.01171875 35.59716797 C42.03910156 36.20447754 43.06648438 36.81178711 44.125 37.4375 C46.27326723 38.69950863 48.4217072 39.96122327 50.5703125 41.22265625 C51.64442383 41.85445801 52.71853516 42.48625977 53.82519531 43.13720703 C58.53875168 45.90285107 63.26818543 48.64074787 68 51.375 C68.81227051 51.84478271 69.62454102 52.31456543 70.46142578 52.79858398 C72.30738924 53.86611692 74.15365542 54.93312636 76 56 C73.483226 58.84281428 70.67870382 60.44106318 67.36328125 62.2578125 C66.235271 62.87970459 65.10726074 63.50159668 63.94506836 64.14233398 C62.73429157 64.80336798 61.52343402 65.46425407 60.3125 66.125 C58.47162151 67.13594144 56.63159041 68.14841371 54.7915802 69.16093445 C53.57333052 69.8310921 52.35473402 70.5006197 51.13578796 71.16950989 C45.55239267 74.23578392 40.0091206 77.37130289 34.49536133 80.56103516 C30.21851769 83 30.21851769 83 28 83 C28 70.46 28 57.92 28 45 C26.35 44.34 24.7 43.68 23 43 C19.90046361 39.71312899 18.01665498 36.26471116 16.125 32.1875 C11.77051708 23.30435483 6.60990986 17.26591623 -1 11 C-2.89488952 9.10511048 -2.18019112 6.42860854 -2.23046875 3.91015625 C-2 2 -2 2 0 0 Z " fill="#EBCD51" transform="translate(255,300)"/>
<path d="M0 0 C0 17.49 0 34.98 0 53 C-4.03231687 51.38707325 -7.58826052 49.6707406 -11.375 47.5859375 C-11.98077881 47.25260406 -12.58655762 46.91927063 -13.21069336 46.57583618 C-14.49233049 45.86954196 -15.77315891 45.1617785 -17.05322266 44.45263672 C-18.96402909 43.39491166 -20.87825981 42.34360899 -22.79296875 41.29296875 C-31.01514862 36.76184307 -39.05054188 31.99522231 -47 27 C-44.52295427 24.23499836 -41.79430329 22.57830419 -38.58203125 20.7421875 C-37.49921875 20.12029541 -36.41640625 19.49840332 -35.30078125 18.85766602 C-34.13815409 18.19654296 -32.97539121 17.5356585 -31.8125 16.875 C-30.63263595 16.2007483 -29.45294901 15.52618659 -28.2734375 14.85131836 C-25.93481342 13.51455585 -23.5944291 12.18095796 -21.25244141 10.85009766 C-18.42876188 9.24389413 -15.60985679 7.62978773 -12.79296875 6.01171875 C-11.36229025 5.19476748 -9.93132876 4.37831145 -8.5 3.5625 C-7.85522705 3.1917334 -7.2104541 2.8209668 -6.54614258 2.43896484 C-2.23109685 0 -2.23109685 0 0 0 Z " fill="#EBCC4C" transform="translate(228,330)"/>
<path d="M0 0 C0 17.49 0 34.98 0 53 C-4.38150809 51.5394973 -7.39766521 50.36659991 -11.23828125 48.09375 C-12.21603516 47.51898926 -13.19378906 46.94422852 -14.20117188 46.35205078 C-15.7412793 45.43528564 -15.7412793 45.43528564 -17.3125 44.5 C-18.36888672 43.87722168 -19.42527344 43.25444336 -20.51367188 42.61279297 C-22.65584535 41.34935177 -24.79664553 40.0835791 -26.93603516 38.81542969 C-30.53673455 36.68197943 -34.14518185 34.56194561 -37.75463867 32.44335938 C-40.83861364 30.6326097 -43.91942851 28.81653264 -47 27 C-44.58310212 24.30592573 -41.99835145 22.7329107 -38.8359375 20.99609375 C-37.803479 20.42455566 -36.77102051 19.85301758 -35.70727539 19.26416016 C-34.60762451 18.6613623 -33.50797363 18.05856445 -32.375 17.4375 C-23.81724494 12.70641346 -15.31423997 7.91641046 -6.95263672 2.84545898 C-2.20879574 0 -2.20879574 0 0 0 Z " fill="#EBCC4C" transform="translate(125,238)"/>
<path d="M0 0 C3.63632623 1.37448867 6.97064121 3.00434858 10.359375 4.90625 C11.89863647 5.76839111 11.89863647 5.76839111 13.46899414 6.64794922 C14.55172607 7.25912598 15.63445801 7.87030273 16.75 8.5 C17.85786865 9.12277832 18.9657373 9.74555664 20.10717773 10.38720703 C29.13863815 15.47912834 38.09785622 20.68565282 47 26 C44.58310212 28.69407427 41.99835145 30.2670893 38.8359375 32.00390625 C37.803479 32.57544434 36.77102051 33.14698242 35.70727539 33.73583984 C34.60762451 34.3386377 33.50797363 34.94143555 32.375 35.5625 C23.81724494 40.29358654 15.31423997 45.08358954 6.95263672 50.15454102 C2.20879574 53 2.20879574 53 0 53 C0 40.79 0 28.58 0 16 C2.475 16.99 2.475 16.99 5 18 C6.29017022 18.4831814 7.58175985 18.96259646 8.875 19.4375 C11.47273193 20.39226342 13.86981317 21.41879893 16.375 22.625 C20.91171427 24.34582265 25.18575705 24.71908844 30 25 C30 23.02 30 21.04 30 19 C28.36804688 18.67128906 28.36804688 18.67128906 26.703125 18.3359375 C5.93202933 13.93202933 5.93202933 13.93202933 0 8 C-0.14115161 5.32941149 -0.04247107 2.67567762 0 0 Z " fill="#EBCC4E" transform="translate(181,238)"/>
<path d="M0 0 C1.83203125 0.02734375 1.83203125 0.02734375 4 1 C5.45216381 3.19223873 6.57049827 5.20352335 7.6875 7.5625 C8.19796875 8.60216919 8.19796875 8.60216919 8.71875 9.6628418 C11.75748875 16.05317126 14.11305881 22.6580596 16.5 29.3125 C21.22109196 42.32952742 27.00023419 53.5001171 40 60 C40.33 56.37 40.66 52.74 41 49 C41.99 49.495 41.99 49.495 43 50 C43 53.96 43 57.92 43 62 C44.63324219 62.66644531 46.26648438 63.33289063 47.94921875 64.01953125 C59.13631991 68.63343952 70.25314984 73.36260747 81.0625 78.8125 C81.95348389 79.24344971 82.84446777 79.67439941 83.76245117 80.1184082 C89.72972872 83.21367065 89.72972872 83.21367065 91.12109375 87.26171875 C91 90 91 90 90 91 C84.00991268 90.69632003 80.28677353 88.69740735 75.3125 85.5 C65.19473879 79.2573436 54.30292405 73.76764135 43 70 C43 92.11 43 114.22 43 137 C42.34 137 41.68 137 41 137 C41 114.23 41 91.46 41 68 C38.03 67.01 38.03 67.01 35 66 C19.61240084 57.57922723 13.3600642 41.492357 8.38330078 25.78393555 C6.36284901 19.6048398 3.68788858 14.27539991 0.3203125 8.69921875 C-1.0819067 5.83255168 -1.36734116 4.14466298 -1 1 C-0.67 0.67 -0.34 0.34 0 0 Z " fill="#FDFBF1" transform="translate(304,96)"/>
<path d="M0 0 C1.89599609 0.1887207 1.89599609 0.1887207 4 1 C5.39697266 2.72729492 5.39697266 2.72729492 6.6640625 4.98046875 C7.14190186 5.80893311 7.61974121 6.63739746 8.11206055 7.4909668 C8.61133057 8.38082275 9.11060059 9.27067871 9.625 10.1875 C13.40271118 16.71561413 17.25491599 23.08105594 21.6875 29.1875 C22.10918457 29.76846436 22.53086914 30.34942871 22.96533203 30.94799805 C24.85622004 33.57942702 24.85622004 33.57942702 27 36 C27.33 34.35 27.66 32.7 28 31 C28.33 31 28.66 31 29 31 C28.9175 32.19625 28.835 33.3925 28.75 34.625 C29.16633728 37.7310952 29.65054107 38.72387643 32.140625 40.69140625 C38.93038106 44.24396987 46.04686944 46.38538808 53.47460938 48.17651367 C55.60546875 48.7265625 55.60546875 48.7265625 59 50 C60.05078125 52.0234375 60.05078125 52.0234375 60 54 C59.505 54.99 59.505 54.99 59 56 C52.4775643 56.35433755 47.9518272 55.9759136 42 53 C40.25446178 52.30124927 38.5041578 51.614321 36.75 50.9375 C33.82796252 49.80770601 31.63332733 48.75555155 29 47 C29.33 59.54 29.66 72.08 30 85 C29.34 85 28.68 85 28 85 C28.0220752 83.8761792 28.04415039 82.7523584 28.06689453 81.59448242 C28.13625966 77.37634754 28.13865671 73.16024982 28.12207031 68.94165039 C28.1240026 67.12513664 28.14347246 65.30854539 28.18164062 63.49243164 C28.58123679 50.54925667 28.58123679 50.54925667 22.31640625 39.76171875 C20.5585396 38.15869091 18.7874196 36.57000783 17 35 C14.77710131 32.31611926 12.79091442 29.49240273 10.8125 26.625 C10.06286987 25.54762573 10.06286987 25.54762573 9.2980957 24.44848633 C-2.2969107 7.52589245 -2.2969107 7.52589245 -1.73046875 2.70703125 C-1 1 -1 1 0 0 Z " fill="#FDFAF1" transform="translate(152,207)"/>
<path d="M0 0 C2.01171875 0.11328125 2.01171875 0.11328125 4 1 C5.01953125 2.85546875 5.01953125 2.85546875 5.8125 5.1875 C7.17591077 8.56960424 8.25193211 10.52302598 11.1875 12.6875 C14.95285838 15.57454584 17.23880409 19.03887212 19.75 23 C20.12664795 23.59385498 20.5032959 24.18770996 20.89135742 24.79956055 C22.59767154 27.55169239 24.11977832 30.26531543 25.453125 33.21875 C27.25695276 36.46199587 28.82977164 37.61998086 32 39.5 C32.97710937 40.08265625 33.95421875 40.6653125 34.9609375 41.265625 C36.46527344 42.12414062 36.46527344 42.12414062 38 43 C38.94101562 43.55171875 39.88203125 44.1034375 40.8515625 44.671875 C46.43894459 47.8511741 51.83491684 50.18079513 58 52 C58.38218767 53.65614657 58.71395102 55.32457024 59 57 C58 58 58 58 54.94921875 58.28125 C50.2249772 57.9448055 47.00364472 56.58431228 42.8125 54.5 C42.07362549 54.1405127 41.33475098 53.78102539 40.57348633 53.41064453 C29.50648732 47.9017277 20.98601875 42.72152991 15.625 31.125 C11.48845435 22.73875092 6.18356236 16.91486638 -1 11 C-2.89488952 9.10511048 -2.18019112 6.42860854 -2.23046875 3.91015625 C-2 2 -2 2 0 0 Z " fill="#FEFCF7" transform="translate(255,300)"/>
<path d="M0 0 C1.98 0 3.96 0 6 0 C6 2.31 6 4.62 6 7 C1.125 2.25 1.125 2.25 0 0 Z " fill="#EDD15F" transform="translate(174,237)"/>
</svg>
