<?xml version="1.0" encoding="UTF-8"?>
<svg version="1.1" xmlns="http://www.w3.org/2000/svg" width="500" height="500">
<path d="M0 0 C165 0 330 0 500 0 C500 165 500 330 500 500 C335 500 170 500 0 500 C0 335 0 170 0 0 Z " fill="#FEFEFE" transform="translate(0,0)"/>
<path d="M0 0 C10.15608624 7.51550381 20.03563769 15.37520287 29.8125 23.375 C35.27302666 27.84156135 40.81213515 32.1806767 46.4375 36.4375 C53.03815846 41.43529277 59.45995264 46.61457422 65.82910156 51.90332031 C72.45360036 57.39867805 79.20878968 62.71315932 86 68 C94.08271305 74.30456249 102.09653523 80.68248995 110.03857422 87.16357422 C114.8752121 91.10406303 119.76288844 94.9726823 124.68017578 98.81176758 C131.86904059 104.43895614 138.93004891 110.22467632 146 116 C130.51717234 127.9317204 115.49097245 130.40497598 96.25 130.25 C95.18668961 130.24435028 95.18668961 130.24435028 94.10189819 130.23858643 C78.71891218 130.1426855 64.85659787 128.59997872 50.08911133 124.03271484 C49.2411499 123.77184082 48.39318848 123.5109668 47.51953125 123.2421875 C46.76776611 123.0035498 46.01600098 122.76491211 45.24145508 122.51904297 C42.76453076 121.94547352 40.53396804 121.91128462 38 122 C38.70295517 125.25596622 38.70295517 125.25596622 41.8125 126.5 C71.17449174 137.94701828 109.72290671 139.57167761 139 127 C141.92851845 125.4318256 144.79485102 123.81358115 147.625 122.07421875 C150.45072107 120.79613767 151.14518646 120.9823072 154 122 C155.87524414 123.25927734 155.87524414 123.25927734 157.78515625 124.8359375 C158.48060547 125.40570313 159.17605469 125.97546875 159.89257812 126.5625 C160.60865234 127.160625 161.32472656 127.75875 162.0625 128.375 C162.78244141 128.96539062 163.50238281 129.55578125 164.24414062 130.1640625 C167.28815753 132.6738926 170.24557952 135.17102139 173 138 C172.33806641 138.35602295 171.67613281 138.7120459 170.99414062 139.07885742 C155.97259727 147.15952764 140.96257284 155.26089646 125.96777344 163.39111328 C120.97927343 166.09547451 115.98957283 168.79761881 111 171.5 C108.99999432 172.58332285 106.99999432 173.66665618 105 174.75 C-3.00000001 233.25 -3.00000001 233.25 -6.00048828 234.87524414 C-7.9988834 235.95772172 -9.99725583 237.0402412 -11.99560547 238.12280273 C-17.0199741 240.84457453 -22.04474489 243.56559885 -27.0703125 246.28515625 C-29.0885635 247.37756383 -31.10679278 248.47001154 -33.125 249.5625 C-34.10855469 250.09480225 -35.09210938 250.62710449 -36.10546875 251.17553711 C-41.11476599 253.88849396 -46.11955956 256.60934954 -51.1171875 259.34375 C-52.1057373 259.88443115 -53.09428711 260.4251123 -54.11279297 260.98217773 C-55.9745201 262.00120021 -57.83557457 263.02145306 -59.69580078 264.04321289 C-64.74657581 266.808056 -69.83309488 269.45840894 -75 272 C-73.45305901 263.28087808 -71.0808538 254.86055097 -68.66455078 246.35253906 C-68.03689866 244.13062287 -67.42002037 241.90611669 -66.80859375 239.6796875 C-64.77676384 232.28531106 -62.68653443 224.91301053 -60.51074219 217.55957031 C-57.28557946 206.64664372 -54.31247605 195.69012836 -51.48925781 184.66650391 C-49.29816119 176.11379963 -46.99180149 167.60137185 -44.59277344 159.10498047 C-43.55120092 155.40628268 -42.52689536 151.70279361 -41.5 148 C-41.08075496 146.49218033 -40.66148421 144.98436781 -40.2421875 143.4765625 C-39.43066393 140.55583728 -38.62357176 137.63394581 -37.8203125 134.7109375 C-35.78118318 127.30713585 -33.68966671 119.92359658 -31.51074219 112.55957031 C-28.28557946 101.64664372 -25.31247605 90.69012836 -22.48925781 79.66650391 C-20.29584519 71.10475938 -17.98610934 62.58381154 -15.58398438 54.07861328 C-14.9914877 51.96970162 -14.40837244 49.85840648 -13.828125 47.74609375 C-11.1296099 37.93491431 -8.31542245 28.16198411 -5.41064453 18.40966797 C-4.08265242 13.90987868 -2.8367346 9.43686356 -1.85546875 4.84765625 C-1 1 -1 1 0 0 Z " fill="#E58FCE" transform="translate(207,130)"/>
<path d="M0 0 C5.79032557 1.17951076 10.49648567 3.08489757 15.703125 5.87890625 C20.27199705 8.10895094 24.56411185 8.14730026 29.58203125 8.1328125 C30.31443527 8.13376923 31.04683929 8.13472595 31.80143738 8.13571167 C33.34882697 8.1363909 34.89621943 8.13455452 36.44360352 8.13037109 C38.79384896 8.12504229 41.14390128 8.13031281 43.49414062 8.13671875 C45.00260458 8.13605747 46.51106842 8.13477529 48.01953125 8.1328125 C49.06207817 8.13584885 49.06207817 8.13584885 50.12568665 8.13894653 C54.5252591 8.11816298 58.67177745 7.70910601 63 7 C63.495 9.475 63.495 9.475 64 12 C62.68 12.33 61.36 12.66 60 13 C60 14.32 60 15.64 60 17 C59.4237085 17.29543701 58.84741699 17.59087402 58.25366211 17.89526367 C47.21977966 23.56613316 36.26906408 29.33892447 25.5 35.5 C12.2261663 43.09011543 -1.3009418 50.20745533 -15 57 C-13.45659672 48.30081787 -11.09242013 39.89838539 -8.68212891 31.40966797 C-7.56536197 27.46461081 -6.47067832 23.51345591 -5.375 19.5625 C-5.16746094 18.81564941 -4.95992187 18.06879883 -4.74609375 17.29931641 C-3.14575694 11.53784741 -1.56365539 5.77154105 0 0 Z " fill="#E590CF" transform="translate(147,345)"/>
<path d="M0 0 C1.0209375 0.4021875 1.0209375 0.4021875 2.0625 0.8125 C2.8828125 3.484375 2.8828125 3.484375 3.0625 6.8125 C1.38401853 8.95335561 -0.0009032 10.3697612 -2.0625 12.0625 C-2.60583984 12.53284668 -3.14917969 13.00319336 -3.70898438 13.48779297 C-9.08472528 18.08303541 -14.68604962 22.39509436 -20.35693359 26.6171875 C-21.88032914 27.76926421 -23.37261624 28.96212582 -24.86328125 30.15625 C-30.38024766 34.5160719 -36.02736803 38.191596 -42.25 41.4375 C-42.90782471 41.79279785 -43.56564941 42.1480957 -44.2434082 42.51416016 C-48.86835424 44.81757611 -51.94164825 44.98875487 -56.9375 43.8125 C-57.25 41.5625 -57.25 41.5625 -56.9375 38.8125 C-52.80406076 34.82876279 -47.76140954 32.54952738 -42.6875 30 C-31.98168578 24.46438435 -23.73950805 17.82705616 -15.07104492 9.51831055 C-4.74094274 -0.30261337 -4.74094274 -0.30261337 0 0 Z " fill="#E72026" transform="translate(443.9375,195.1875)"/>
<path d="M0 0 C6.16900933 0.62598785 11.69248151 2.16096369 17.58203125 4.06640625 C32.12007154 8.44082777 46.76269834 9.22457985 61.8515625 9.43359375 C63.78232384 9.4647654 63.78232384 9.4647654 65.75209045 9.49656677 C68.46400873 9.5401443 71.17594847 9.58108832 73.88793945 9.61987305 C77.29642625 9.66866941 80.70481161 9.72239521 84.11319637 9.77781773 C92.43329889 9.91278074 100.75358107 10.02091137 109.07421875 10.1171875 C110.14825958 10.13151825 111.22230042 10.145849 112.32888794 10.16061401 C115.20233598 10.19677412 118.07562199 10.22168453 120.94921875 10.2421875 C121.75548203 10.25363297 122.5617453 10.26507843 123.3924408 10.27687073 C130.11453247 10.30113853 136.38874316 9.19276233 142.921875 7.67578125 C145.83164108 7.16017214 147.35438157 7.09300941 150.07421875 8.1171875 C147.72250032 8.93741362 145.36823365 9.7484529 143.01171875 10.5546875 C142.35494141 10.78478516 141.69816406 11.01488281 141.02148438 11.25195312 C140.36728516 11.47431641 139.71308594 11.69667969 139.0390625 11.92578125 C138.44730225 12.13001709 137.85554199 12.33425293 137.24584961 12.54467773 C131.50258457 14.0587819 125.71603523 14.2693581 119.81005859 14.27832031 C119.01371506 14.28328522 118.21737152 14.28825012 117.39689636 14.29336548 C114.77630726 14.30789935 112.15577896 14.31477919 109.53515625 14.3203125 C108.63001911 14.32313988 107.72488197 14.32596725 106.79231644 14.32888031 C101.98947106 14.34384761 97.18665544 14.35308898 92.38378906 14.35742188 C87.48378992 14.36286151 82.58407501 14.3868 77.68416405 14.41539383 C73.86594933 14.43427056 70.04779916 14.43923918 66.22954178 14.44075775 C64.42709447 14.44373564 62.62464689 14.45159334 60.82224655 14.46494293 C43.78923709 14.5819555 27.02610229 13.19003192 10.76589394 7.83488083 C6.16051174 6.32734574 1.87220525 5.59645363 -2.92578125 5.1171875 C-3.25578125 4.1271875 -3.58578125 3.1371875 -3.92578125 2.1171875 C-1.92578125 0.1171875 -1.92578125 0.1171875 0 0 Z " fill="#E61E27" transform="translate(183.92578125,254.8828125)"/>
<path d="M0 0 C2.875 -0.125 2.875 -0.125 6 0 C8.75597613 2.75597613 8.25804622 4.36857758 8.265625 8.22265625 C8.26949219 10.11467773 8.26949219 10.11467773 8.2734375 12.04492188 C8.26715332 13.03576782 8.26715332 13.03576782 8.26074219 14.04663086 C8.25017099 16.03041255 8.26162346 18.0142722 8.2734375 19.99804688 C8.25238036 30.37395136 6.69362699 38.81029895 3 48.4375 C2.73960937 49.14326172 2.47921875 49.84902344 2.2109375 50.57617188 C0.25655242 55.74344758 0.25655242 55.74344758 -2 58 C-4.5 58.25 -4.5 58.25 -7 58 C-7.66 57.34 -8.32 56.68 -9 56 C-8.72647993 50.79172191 -7.5563133 46.39496276 -5.82885742 41.50341797 C-1.53646691 29.18634334 -1.08925661 17.25681345 -1.11010742 4.29638672 C-1 2 -1 2 0 0 Z " fill="#E72025" transform="translate(252,76)"/>
<path d="M0 0 C1 1 1 1 1.2890625 3.34375 C1 6 1 6 -0.4140625 7.78125 C-36.03075287 35.46913651 -36.03075287 35.46913651 -50 34 C-51 33 -51 33 -51.30175781 30.61962891 C-51 28 -51 28 -49.40917969 26.42333984 C-48.67086914 25.98199707 -47.93255859 25.5406543 -47.171875 25.0859375 C-46.34751953 24.5815918 -45.52316406 24.07724609 -44.67382812 23.55761719 C-43.79146484 23.04360352 -42.90910156 22.52958984 -42 22 C-41.14341797 21.4834082 -40.28683594 20.96681641 -39.40429688 20.43457031 C-36.69778905 18.81086595 -33.97621327 17.21537048 -31.25 15.625 C-23.86906326 11.2944873 -16.52875826 6.91582321 -9.265625 2.390625 C-5.87299477 0.30825196 -3.99410523 -0.20482591 0 0 Z " fill="#E71E24" transform="translate(338,123)"/>
<path d="M0 0 C0.53625 0.2475 1.0725 0.495 1.625 0.75 C1.5 3 1.5 3 0.625 5.75 C-3.7836045 9.32144224 -7.9303653 10.61319976 -13.4375 11.4375 C-14.11232422 11.55416016 -14.78714844 11.67082031 -15.48242188 11.79101562 C-27.58573729 13.76911981 -39.75730775 13.91144079 -51.98681641 13.88037109 C-54.50299053 13.87499361 -57.01898739 13.88035861 -59.53515625 13.88671875 C-67.86586073 13.88979667 -76.09223117 13.76881074 -84.375 12.75 C-84.75718767 11.09385343 -85.08895102 9.42542976 -85.375 7.75 C-84.375 6.75 -84.375 6.75 -82.03988647 6.64993286 C-80.48559433 6.6668367 -80.48559433 6.6668367 -78.89990234 6.68408203 C-77.72712738 6.69384064 -76.55435242 6.70359924 -75.34603882 6.71365356 C-74.06395538 6.72822601 -72.78187195 6.74279846 -71.4609375 6.7578125 C-69.44754583 6.77085318 -67.43415385 6.7838743 -65.42075539 6.79582024 C-60.45160398 6.82626583 -55.48260526 6.86562544 -50.51367188 6.92138672 C-47.05655966 6.95960316 -43.59961574 6.98223617 -40.14232254 6.99569321 C-38.21118641 7.0074311 -36.28017149 7.03556044 -34.34921265 7.0642395 C-23.63099405 7.09466404 -8.41567687 -0.88586072 0 0 Z " fill="#FDF9FC" transform="translate(293.375,295.25)"/>
<path d="M0 0 C1.67542976 0.28604898 3.34385343 0.61781233 5 1 C5.625 3.375 5.625 3.375 6 6 C1.84619621 10.15380379 -4.95310011 10.03252327 -10.5625 10.25 C-17.27731018 10.66127224 -23.5070215 12.28929903 -30 14 C-47.65293283 18.62750752 -47.65293283 18.62750752 -55 18 C-57 16 -57 16 -57.3125 13.5 C-57.209375 12.675 -57.10625 11.85 -57 11 C-53.73942854 8.82628569 -51.78241082 8.44569645 -47.953125 7.81640625 C-46.72553467 7.61241211 -45.49794434 7.40841797 -44.2331543 7.19824219 C-42.90548863 6.98599988 -41.57776938 6.77409254 -40.25 6.5625 C-38.8994546 6.34172108 -37.54895029 6.12069061 -36.19848633 5.89941406 C-26.73969518 4.36537304 -17.26138738 3.03055367 -7.74511719 1.90063477 C-6.8637207 1.79420654 -5.98232422 1.68777832 -5.07421875 1.578125 C-3.92312622 1.44519043 -3.92312622 1.44519043 -2.7487793 1.30957031 C-0.97720603 1.16821442 -0.97720603 1.16821442 0 0 Z " fill="#E82328" transform="translate(390,198)"/>
<path d="M0 0 C2.34104983 0.96057144 4.67375893 1.94160127 7 2.9375 C15.15222967 6.36674412 23.26409301 7.84555075 32 9 C32.95648438 9.13148438 33.91296875 9.26296875 34.8984375 9.3984375 C37.93884811 9.72833543 40.94274422 9.88738169 44 10 C44.85513184 10.03254883 45.71026367 10.06509766 46.59130859 10.09863281 C58.44554095 10.49106518 69.34554231 10.39633731 80.7578125 6.97265625 C83.83781153 6.04865654 86.82120045 5.45894522 90 5 C90.495 6.98 90.495 6.98 91 9 C75.61784996 19.25476669 53.17482705 16.54289135 35.625 15.125 C34.61961182 15.04668945 33.61422363 14.96837891 32.57836914 14.88769531 C31.16672485 14.76152832 31.16672485 14.76152832 29.7265625 14.6328125 C28.88689941 14.55949707 28.04723633 14.48618164 27.18212891 14.41064453 C25 14 25 14 22 12 C19.61565541 11.48523047 17.2170749 11.03500776 14.8125 10.625 C9.7086866 9.69742049 5.36162464 8.51075778 0.8515625 5.91796875 C-2.55313485 4.22998589 -6.28019238 3.6544106 -10 3 C-10.33 1.68 -10.66 0.36 -11 -1 C-7.44373591 -2.77813205 -3.63567014 -1.10111701 0 0 Z " fill="#E61F27" transform="translate(178,305)"/>
<path d="M0 0 C2 1.25 2 1.25 3 3 C2.875 5.0625 2.875 5.0625 2 7 C-1.31189708 9.20793139 -3.00334122 9.37873888 -6.8984375 9.80859375 C-15.17014342 10.98158448 -22.19036148 14.1058804 -29.78125 17.45507812 C-36.35915941 20.24781897 -42.74103902 22.50307201 -50 22 C-52 20 -52 20 -52.0625 17.5625 C-51 15 -51 15 -48.30078125 13.62109375 C-42.36091366 11.25560609 -36.21756514 9.42497105 -30.125 7.5 C-27.66913587 6.71917436 -25.21340375 5.93793339 -22.7578125 5.15625 C-21.01636963 4.60445068 -21.01636963 4.60445068 -19.23974609 4.04150391 C-15.75864507 2.92240994 -12.29939742 1.74938062 -8.85058594 0.53466797 C-5.79784573 -0.34732426 -3.1320739 -0.37584887 0 0 Z " fill="#E72228" transform="translate(379,151)"/>
<path d="M0 0 C0.93070313 0.13277344 1.86140625 0.26554687 2.8203125 0.40234375 C16.60436544 2.17206532 30.39352933 2.38627072 44.27197266 2.57006836 C45.90136746 2.59877985 47.53076201 2.62750643 49.16015625 2.65625 C50.30121071 2.66405235 50.30121071 2.66405235 51.46531677 2.67201233 C56.77434032 2.77434032 56.77434032 2.77434032 59 5 C59 6.32 59 7.64 59 9 C50.94782345 11.02060105 43.15421855 11.38525725 34.875 11.375 C33.59560547 11.37411377 32.31621094 11.37322754 30.99804688 11.37231445 C19.63107125 11.23029935 8.76225081 10.35639092 -1 4 C-0.67 2.68 -0.34 1.36 0 0 Z " fill="#FDF6FB" transform="translate(167,338)"/>
<path d="M0 0 C4.50082471 0.27972751 9.00042305 0.57592098 13.5 0.875 C14.7684375 0.95363281 16.036875 1.03226562 17.34375 1.11328125 C23.82532764 1.55213807 29.76247895 2.20071508 36 4 C43.38888043 5.94408289 50.45284624 6.37855354 58.06640625 6.56640625 C58.91847656 6.59605469 59.77054688 6.62570312 60.6484375 6.65625 C61.41333496 6.67494141 62.17823242 6.69363281 62.96630859 6.71289062 C65 7 65 7 68 9 C67.125 12.875 67.125 12.875 66 14 C55.76244249 14.74739384 46.14106179 13.07528428 36.2668457 10.52954102 C25.65857436 7.82796293 15.09063763 6.92340532 4.18212891 6.23364258 C2 6 2 6 -1 5 C-0.67 3.35 -0.34 1.7 0 0 Z " fill="#EAC851" transform="translate(184,269)"/>
<path d="M0 0 C0.0625 2.25 0.0625 2.25 -1 5 C-3.78875473 6.87042387 -6.86323889 7.84675106 -10 9 C-10.82048828 9.34321289 -11.64097656 9.68642578 -12.48632812 10.04003906 C-23.89626007 14.27789988 -35.73916684 13.63904791 -47.75 13.6875 C-51.06528122 13.71673401 -54.38043234 13.75142555 -57.69561768 13.78999329 C-59.74467023 13.8121599 -61.79380242 13.8281709 -63.84295654 13.83683777 C-69.63727789 13.88027435 -75.25158524 14.26097081 -81 15 C-81 11 -81 11 -80 10 C-74.73437763 9.04451338 -69.58386497 8.82574454 -64.2421875 8.75390625 C-62.54687026 8.72094617 -60.85155788 8.68773492 -59.15625 8.65429688 C-56.52379911 8.60718421 -53.89136477 8.56274587 -51.25878906 8.52319336 C-31.90569227 8.4883022 -31.90569227 8.4883022 -13.625 2.875 C-8.77953478 0.50333201 -5.41107505 -0.31507526 0 0 Z " fill="#E61F28" transform="translate(273,194)"/>
<path d="M0 0 C5.2231409 0.41235323 9.09648111 2.41306776 13.6328125 4.84375 C18.23596565 7.09215484 22.52313539 7.14741857 27.58203125 7.1328125 C28.31443527 7.13376923 29.04683929 7.13472595 29.80143738 7.13571167 C31.34882697 7.1363909 32.89621943 7.13455452 34.44360352 7.13037109 C36.79384896 7.12504229 39.14390128 7.13031281 41.49414062 7.13671875 C43.00260458 7.13605747 44.51106842 7.13477529 46.01953125 7.1328125 C47.06207817 7.13584885 47.06207817 7.13584885 48.12568665 7.13894653 C52.5252591 7.11816298 56.67177745 6.70910601 61 6 C61.495 8.475 61.495 8.475 62 11 C51.183569 17.05400696 30.04860161 15.88812736 18.35546875 13.05859375 C11.49684798 11.01622289 5.02804236 7.83899717 -1 4 C-0.67 2.68 -0.34 1.36 0 0 Z " fill="#E6212C" transform="translate(149,346)"/>
<path d="M0 0 C2.5 0.1875 2.5 0.1875 5 1 C7.41246405 4.61869607 7.84237945 7.98523241 8.5 12.1875 C9.20888031 16.60047465 9.9474308 20.95007024 11.078125 25.27734375 C12.13034777 29.52636197 12.29913491 32.66254383 12 37 C11.34 37.66 10.68 38.32 10 39 C7.5625 38.9375 7.5625 38.9375 5 38 C2.23516699 34.19303762 0.93847101 30.13877061 -0.1875 25.625 C-0.36039551 24.93325684 -0.53329102 24.24151367 -0.71142578 23.52880859 C-2.34704424 16.42071695 -2.83744994 9.2643913 -2 2 C-1.34 1.34 -0.68 0.68 0 0 Z " fill="#FFA930" transform="translate(202,83)"/>
<path d="M0 0 C0.85851562 0.26296875 1.71703125 0.5259375 2.6015625 0.796875 C2.44552032 6.75620031 2.44552032 6.75620031 0.33837891 9.35449219 C-1.40795004 10.8975642 -3.20613425 12.29442095 -5.0859375 13.671875 C-5.75351074 14.18000732 -6.42108398 14.68813965 -7.10888672 15.21166992 C-9.18497185 16.77056604 -11.28472735 18.28947239 -13.3984375 19.796875 C-14.05827637 20.27108887 -14.71811523 20.74530273 -15.39794922 21.23388672 C-17.25667614 22.55202959 -19.13239249 23.83813141 -21.0234375 25.109375 C-21.59022217 25.50044434 -22.15700684 25.89151367 -22.7409668 26.29443359 C-25.43842593 28.0330917 -26.99038669 28.82666383 -30.234375 28.58984375 C-32.3984375 27.796875 -32.3984375 27.796875 -33.3984375 26.796875 C-33.90625 24.5546875 -33.90625 24.5546875 -33.3984375 21.796875 C-31.04361198 19.833501 -28.8577248 18.27477993 -26.2734375 16.671875 C-19.84245874 12.51700491 -13.83472625 8.13605811 -8.09326172 3.06201172 C-5.16696176 0.61883989 -3.88054049 -0.23194035 0 0 Z " fill="#E72026" transform="translate(375.3984375,59.203125)"/>
<path d="M0 0 C2.375 -0.125 2.375 -0.125 5 0 C7.34179133 2.34179133 7.29546326 2.81980865 7.3125 6 C7.22818018 10.41976405 6.12588711 14.01830192 4.72265625 18.17578125 C3.56597951 22.696199 3.52993537 27.24992905 3.40625 31.8984375 C2.97285257 35.2072602 2.23631546 36.58525511 0 39 C-2.4375 38.625 -2.4375 38.625 -5 38 C-7.83063519 32.33872961 -5.84736996 23.57547633 -5.25 17.4375 C-5.188125 16.63892578 -5.12625 15.84035156 -5.0625 15.01757812 C-4.49429667 9.20769905 -2.86684457 5.08690104 0 0 Z " fill="#E71F25" transform="translate(328,41)"/>
<path d="M0 0 C4.875 0.875 4.875 0.875 6 2 C6.4655005 6.81929931 5.73238919 9.21745761 2.75 13 C-2.99617484 19.74285649 -10.37553932 23.78689367 -19.1875 24.9375 C-20.445625 24.958125 -21.70375 24.97875 -23 25 C-24 24 -24 24 -24.375 21.125 C-24 18 -24 18 -22.125 16.375 C-19 15 -19 15 -16.7578125 14.3203125 C-8.70451491 11.68605628 -4.84354191 6.78563842 0 0 Z " fill="#FFA830" transform="translate(401,59)"/>
<path d="M0 0 C0.66 0.33 1.32 0.66 2 1 C2.3125 3.25 2.3125 3.25 2 6 C-2.00018957 9.92889907 -6.61468535 11.76241144 -11.75 13.75 C-12.51054687 14.06582031 -13.27109375 14.38164062 -14.0546875 14.70703125 C-19.29865896 16.7601794 -24.3547981 17.9503606 -30 17 C-30.66 16.34 -31.32 15.68 -32 15 C-31.67028521 11.70285207 -31.3773161 10.3773161 -29 8 C-27.01975652 7.31497391 -25.01493904 6.70001798 -23 6.125 C-18.73262522 4.87072189 -14.64916668 3.50409437 -10.5625 1.75 C-6.89074294 0.22756414 -4.02841434 -0.50355179 0 0 Z " fill="#E72025" transform="translate(432,158)"/>
<path d="M0 0 C2.5625 1.0625 2.5625 1.0625 4.3125 4 C6.890996 11.22561592 6.65947836 18.98321604 6.75 26.5625 C6.76313232 27.26947021 6.77626465 27.97644043 6.78979492 28.70483398 C6.79261192 30.49232685 6.6854119 32.27923576 6.5625 34.0625 C5.9025 34.7225 5.2425 35.3825 4.5625 36.0625 C1.26535207 35.73278521 -0.0601839 35.4398161 -2.4375 33.0625 C-2.84814453 30.52807617 -2.84814453 30.52807617 -3.0703125 27.35546875 C-3.15410156 26.21142578 -3.23789063 25.06738281 -3.32421875 23.88867188 C-3.40285156 22.68791016 -3.48148438 21.48714844 -3.5625 20.25 C-3.64886719 19.06083984 -3.73523438 17.87167969 -3.82421875 16.64648438 C-4.05020909 13.4521288 -4.27133377 10.26053205 -4.4375 7.0625 C-4.48632324 6.15282471 -4.53514648 5.24314941 -4.58544922 4.3059082 C-4.36470241 0.95864348 -3.31906963 0.08510435 0 0 Z " fill="#E82329" transform="translate(232.4375,41.9375)"/>
<path d="M0 0 C3.125 0.375 3.125 0.375 6 1 C6.94131076 3.49866261 7.2290069 5.32005286 6.36767578 7.87744141 C5.3418685 10.07186342 4.23273254 12.19151153 3.0625 14.3125 C2.44713379 15.44437744 2.44713379 15.44437744 1.81933594 16.59912109 C-4.6158925 28.04530686 -4.6158925 28.04530686 -10 31 C-13.36047476 30.74846746 -14.59293549 30.40706451 -17 28 C-16.74163926 23.76148731 -15.26761728 21.85884451 -12.3125 18.9375 C-8.18583169 14.5367083 -5.72388978 9.9659377 -3.2265625 4.50390625 C-2 2 -2 2 0 0 Z " fill="#FFA830" transform="translate(280,123)"/>
<path d="M0 0 C1.24587891 0.00193359 2.49175781 0.00386719 3.77539062 0.00585938 C5.07283203 0.01810547 6.37027344 0.03035156 7.70703125 0.04296875 C9.01607422 0.04361328 10.32511719 0.04425781 11.67382812 0.04492188 C21.37931358 0.09025108 21.37931358 0.09025108 22.51953125 1.23046875 C22.70703125 4.16796875 22.70703125 4.16796875 22.51953125 7.23046875 C18.14931138 11.60068862 10.82298301 10.41397738 5.01953125 10.41796875 C4.08238281 10.43021484 3.14523437 10.44246094 2.1796875 10.45507812 C-6.29656383 10.4731127 -6.29656383 10.4731127 -10.48046875 8.23046875 C-10.48046875 6.25046875 -10.48046875 4.27046875 -10.48046875 2.23046875 C-6.95247393 0.05038072 -4.10167639 -0.01470962 0 0 Z " fill="#FFAC38" transform="translate(404.48046875,247.76953125)"/>
<path d="M0 0 C2.625 0.375 2.625 0.375 5 1 C6.35823333 4.50876944 5.94443847 6.67656742 4.5 10 C3.68815909 11.67724076 2.85167096 13.34262895 2 15 C1.443125 16.09957031 0.88625 17.19914062 0.3125 18.33203125 C-5.1765419 28.87241127 -5.1765419 28.87241127 -9 32 C-11.75 31.75 -11.75 31.75 -14 31 C-15.09251315 27.12921416 -15.17807671 25.40185036 -13.5234375 21.66796875 C-12.8238888 20.49772989 -12.10690786 19.33777747 -11.375 18.1875 C-10.62968162 16.95735022 -9.8848901 15.72688107 -9.140625 14.49609375 C-8.77388672 13.9016748 -8.40714844 13.30725586 -8.02929688 12.69482422 C-6.24101335 9.75026439 -4.63857259 6.70531685 -3.0078125 3.671875 C-2 2 -2 2 0 0 Z " fill="#E72127" transform="translate(296,81)"/>
<path d="M0 0 C2.5625 0.1875 2.5625 0.1875 4.5625 2.1875 C4.76679067 4.65100513 4.84522334 6.97492484 4.8125 9.4375 C4.80718262 10.14608154 4.80186523 10.85466309 4.79638672 11.5847168 C4.48465198 29.30427204 4.48465198 29.30427204 0.5625 35.1875 C-1.9375 35.5 -1.9375 35.5 -4.4375 35.1875 C-6.4375 33.1875 -6.4375 33.1875 -6.484375 30.30859375 C-6.38640625 29.09300781 -6.2884375 27.87742187 -6.1875 26.625 C-6.11015625 25.64635986 -6.11015625 25.64635986 -6.03125 24.64794922 C-5.59137022 19.36064426 -5.03243177 14.0843812 -4.4375 8.8125 C-4.35467773 8.0692749 -4.27185547 7.3260498 -4.18652344 6.56030273 C-3.43408463 0.26416036 -3.43408463 0.26416036 0 0 Z " fill="#E71D22" transform="translate(293.4375,32.8125)"/>
<path d="M0 0 C0.625 1.875 0.625 1.875 1 4 C-3.42728798 8.42728798 -10.47294905 8.73396122 -16.4375 9.625 C-17.31116211 9.75688721 -18.18482422 9.88877441 -19.08496094 10.0246582 C-26.77526967 11.10974646 -34.24392805 11.31729385 -42 11 C-42.5625 9.0625 -42.5625 9.0625 -43 7 C-41.32441475 5.32441475 -39.15794522 5.6131824 -36.85546875 5.38671875 C-35.25880371 5.21897949 -35.25880371 5.21897949 -33.62988281 5.04785156 C-31.92590332 4.86947754 -31.92590332 4.86947754 -30.1875 4.6875 C-22.11944203 3.80217573 -14.73360968 2.88583272 -7.234375 -0.328125 C-4.49283204 -1.15250505 -2.72667649 -0.75418711 0 0 Z " fill="#FDF9FC" transform="translate(269,185)"/>
<path d="M0 0 C2.5625 0.1875 2.5625 0.1875 4.5625 2.1875 C4.1875 5.3125 4.1875 5.3125 3.5625 8.1875 C-14.52580141 15.15234129 -14.52580141 15.15234129 -22.4375 14.1875 C-24.4375 11.1875 -24.4375 11.1875 -24.0625 8.5 C-23.85625 7.736875 -23.65 6.97375 -23.4375 6.1875 C-17.56143139 4.01117829 -11.81514406 2.59729364 -5.625 1.6171875 C-3.02654299 1.1067763 -2.71131215 0.20856247 0 0 Z " fill="#FFAA33" transform="translate(446.4375,128.8125)"/>
<path d="M0 0 C3.15568039 0.67589103 3.47713454 1.19200131 5.3046875 3.71875 C6.18325319 5.07713749 7.0433528 6.44760766 7.88671875 7.828125 C8.32435547 8.51003906 8.76199219 9.19195312 9.21289062 9.89453125 C15.24617993 19.38199382 15.24617993 19.38199382 14.69921875 24.578125 C12.69921875 26.578125 12.69921875 26.578125 10.07421875 26.703125 C9.29046875 26.661875 8.50671875 26.620625 7.69921875 26.578125 C7.25191406 25.70929688 6.80460937 24.84046875 6.34375 23.9453125 C2.65113325 16.61703424 2.65113325 16.61703424 -2.23828125 10.078125 C-4.30078125 7.578125 -4.30078125 7.578125 -4.73828125 4.828125 C-4.12484654 1.67331793 -3.09258506 0.77708419 0 0 Z " fill="#FFA930" transform="translate(261.30078125,44.421875)"/>
<path d="M0 0 C0.495 2.475 0.495 2.475 1 5 C-5.67227117 7.70812108 -11.46135182 8.41515615 -18.625 8.25 C-19.52734375 8.24484375 -20.4296875 8.2396875 -21.359375 8.234375 C-26.33125672 8.17639387 -31.0982457 7.83262676 -36 7 C-35.67 5.35 -35.34 3.7 -35 2 C-10.01734161 -0.38776806 -10.01734161 -0.38776806 0 0 Z " fill="#EAC950" transform="translate(233,215)"/>
<path d="M0 0 C1.0828125 0.37125 1.0828125 0.37125 2.1875 0.75 C3.125 2.8125 3.125 2.8125 3.1875 5.75 C-0.74211163 11.41563868 -7.6761489 16.75088306 -13.8125 19.75 C-18.21375392 19.34874608 -18.21375392 19.34874608 -19.8125 17.75 C-20.23046875 15.47265625 -20.23046875 15.47265625 -19.8125 12.75 C-17.36328125 10.43359375 -17.36328125 10.43359375 -14.125 8.1875 C-13.06925781 7.44371094 -12.01351563 6.69992188 -10.92578125 5.93359375 C-9.89839844 5.21300781 -8.87101562 4.49242188 -7.8125 3.75 C-6.9153125 2.99332031 -6.018125 2.23664063 -5.09375 1.45703125 C-2.8125 -0.25 -2.8125 -0.25 0 0 Z " fill="#E72227" transform="translate(386.8125,99.25)"/>
<path d="M0 0 C7.58374295 -0.30463238 14.46174834 0.83345935 21.875 2.375 C23.00164062 2.59671875 24.12828125 2.8184375 25.2890625 3.046875 C33.60769417 4.73846278 33.60769417 4.73846278 37 7 C36.67 8.65 36.34 10.3 36 12 C29.83182363 12.39335725 24.89674073 10.97515056 19.0625 9.0625 C13.00590531 7.09536186 7.35460242 5.58170752 1 5 C0.67 3.35 0.34 1.7 0 0 Z " fill="#EAC650" transform="translate(166,311)"/>
<path d="M0 0 C2.4375 0.375 2.4375 0.375 4.4375 2.375 C4.3360494 7.82992075 1.84536618 10.88370679 -1.75 14.6875 C-2.21986328 15.22439453 -2.68972656 15.76128906 -3.17382812 16.31445312 C-5.59839608 18.93748503 -7.36142412 20.31411937 -10.80078125 21.35546875 C-11.71214844 21.36191406 -12.62351562 21.36835938 -13.5625 21.375 C-14.2225 20.715 -14.8825 20.055 -15.5625 19.375 C-15.4309682 15.70222733 -14.9341212 13.83249383 -12.6015625 10.9609375 C-11.80492187 10.23132813 -11.00828125 9.50171875 -10.1875 8.75 C-6.83106158 5.642348 -6.83106158 5.642348 -3.93359375 2.125 C-2.5625 0.375 -2.5625 0.375 0 0 Z " fill="#FFA830" transform="translate(307.5625,164.625)"/>
<path d="M0 0 C4.55555556 0.55555556 4.55555556 0.55555556 6 2 C5.91265009 6.54219545 5.53332492 8.45427218 2.3125 11.75 C-3.02711438 15.60215038 -7.2599482 17.6480819 -14 17 C-16 15 -16 15 -16.02734375 12.63671875 C-14.57468405 8.90840963 -11.91809645 7.65359195 -8.5625 5.8125 C-4.00586183 3.29038979 -4.00586183 3.29038979 0 0 Z " fill="#FFA931" transform="translate(398,126)"/>
<path d="M0 0 C0.70125 0.2475 1.4025 0.495 2.125 0.75 C2.9375 2.9375 2.9375 2.9375 3.125 5.75 C-0.5207711 10.65293355 -6.2660904 14.41879695 -11.875 16.75 C-16.31664038 16.30835962 -16.31664038 16.30835962 -17.875 14.75 C-18.1953125 12.37890625 -18.1953125 12.37890625 -17.875 9.75 C-16.1171875 8.08984375 -16.1171875 8.08984375 -13.75 6.6875 C-12.92757813 6.18992188 -12.10515625 5.69234375 -11.2578125 5.1796875 C-10.47148437 4.70789063 -9.68515625 4.23609375 -8.875 3.75 C-7.78762064 2.94292287 -6.70357142 2.13131076 -5.625 1.3125 C-2.875 -0.25 -2.875 -0.25 0 0 Z " fill="#FFA930" transform="translate(372.875,179.25)"/>
<path d="M0 0 C2.1875 0.8125 2.1875 0.8125 3.1875 1.8125 C3.546875 4.14453125 3.546875 4.14453125 3.1875 6.8125 C1.140625 8.76171875 1.140625 8.76171875 -1.5625 10.5 C-2.44421875 11.08136719 -3.3259375 11.66273438 -4.234375 12.26171875 C-8.76395495 14.98632972 -11.41292807 16.17247146 -16.8125 15.8125 C-17.8125 14.8125 -17.8125 14.8125 -18.1328125 12.44140625 C-17.8125 9.8125 -17.8125 9.8125 -16.0546875 8.15234375 C-15.27351563 7.68957031 -14.49234375 7.22679687 -13.6875 6.75 C-12.86507813 6.25242188 -12.04265625 5.75484375 -11.1953125 5.2421875 C-10.40898437 4.77039063 -9.62265625 4.29859375 -8.8125 3.8125 C-7.72512064 3.00542287 -6.64107142 2.19381076 -5.5625 1.375 C-2.8125 -0.1875 -2.8125 -0.1875 0 0 Z " fill="#FFA82F" transform="translate(429.8125,188.1875)"/>
<path d="M0 0 C2.26171875 0.8203125 2.26171875 0.8203125 3.26171875 1.8203125 C3.68209168 5.06559148 3.47268647 6.49103533 1.6875 9.27734375 C0.99011719 10.05464844 0.29273438 10.83195312 -0.42578125 11.6328125 C-1.45251953 12.81810547 -1.45251953 12.81810547 -2.5 14.02734375 C-4.73828125 15.8203125 -4.73828125 15.8203125 -7.3828125 16.20703125 C-9.73828125 15.8203125 -9.73828125 15.8203125 -11.73828125 13.8203125 C-12.125 11.5 -12.125 11.5 -11.73828125 8.8203125 C-9.9453125 6.328125 -9.9453125 6.328125 -7.55078125 3.9453125 C-6.77347656 3.14351563 -5.99617188 2.34171875 -5.1953125 1.515625 C-2.73828125 -0.1796875 -2.73828125 -0.1796875 0 0 Z " fill="#FFAA34" transform="translate(328.73828125,94.1796875)"/>
<path d="M0 0 C-0.375 2.4375 -0.375 2.4375 -1 5 C-3.88415883 6.44207941 -6.41721528 6.09394887 -9.625 6.0625 C-10.81351563 6.05347656 -12.00203125 6.04445313 -13.2265625 6.03515625 C-14.14179688 6.02355469 -15.05703125 6.01195312 -16 6 C-16.66 4.68 -17.32 3.36 -18 2 C-15.36589914 -0.63410086 -13.79508236 -0.41381415 -10.125 -0.6875 C-8.55105469 -0.81705078 -8.55105469 -0.81705078 -6.9453125 -0.94921875 C-4.35471258 -0.99388427 -2.44574373 -0.78570994 0 0 Z " fill="#EAC657" transform="translate(169,362)"/>
<path d="M0 0 C1 1 1 1 1.375 3.75 C1 7 1 7 -1.1875 9.9375 C-4 12 -4 12 -6.75 11.875 C-9 11 -9 11 -10 10 C-10.375 7.1875 -10.375 7.1875 -10 4 C-6.87950188 0.61203061 -4.60835798 -0.64004972 0 0 Z " fill="#FFA932" transform="translate(367,42)"/>
<path d="M0 0 C-2.43572059 0.83887056 -4.87333217 1.67126529 -7.3125 2.5 C-8.34793945 2.85771484 -8.34793945 2.85771484 -9.40429688 3.22265625 C-12.38931489 4.23208263 -14.82658914 5 -18 5 C-17.67 4.01 -17.34 3.02 -17 2 C-14.19921875 1.015625 -14.19921875 1.015625 -10.6875 0.25 C-8.96080078 -0.14445312 -8.96080078 -0.14445312 -7.19921875 -0.546875 C-4.30512484 -0.9567833 -2.69878742 -0.98622355 0 0 Z " fill="#E83B47" transform="translate(334,263)"/>
<path d="M0 0 C1.32 0.99 2.64 1.98 4 3 C-1.28 2.34 -6.56 1.68 -12 1 C-12 0.67 -12 0.34 -12 0 C-7.72877859 -1.16487857 -4.31651249 -0.94178454 0 0 Z " fill="#E592B9" transform="translate(179,310)"/>
</svg>
